<svg xmlns="http://www.w3.org/2000/svg" viewBox="0 0 1440 320"><path fill="#09f" fill-opacity=".6" d="M0,192L24,208C48,224,96,256,144,240C192,224,240,160,288,160C336,160,384,224,432,218.7C480,213,528,139,576,117.3C624,96,672,128,720,160C768,192,816,224,864,234.7C912,245,960,235,1008,192C1056,149,1104,75,1152,64C1200,53,1248,107,1296,133.3C1344,160,1392,160,1416,160L1440,160L1440,0L1416,0C1392,0,1344,0,1296,0C1248,0,1200,0,1152,0C1104,0,1056,0,1008,0C960,0,912,0,864,0C816,0,768,0,720,0C672,0,624,0,576,0C528,0,480,0,432,0C384,0,336,0,288,0C240,0,192,0,144,0C96,0,48,0,24,0L0,0Z"/></svg>